<svg xmlns="http://www.w3.org/2000/svg" width="480" height="360" viewBox="0 0 480 360" role="img" aria-hidden="true">
<defs>
  <linearGradient id="bg" x1="0" y1="0" x2="1" y2="1"><stop stop-color="#081426"/><stop offset="1" stop-color="#0A192D"/></linearGradient>
  <radialGradient id="glow" cx=".65" cy=".45" r=".55"><stop stop-color="#1C7BF2" stop-opacity=".22"/><stop offset="1" stop-color="#1C7BF2" stop-opacity="0"/></radialGradient>
  <filter id="sh" x="-30%" y="-30%" width="160%" height="170%"><feDropShadow dx="4" dy="8" stdDeviation="8" flood-color="#000" flood-opacity=".28"/></filter>
  <linearGradient id="blue" x1="0" x2="1"><stop stop-color="#0B4FA8"/><stop offset="1" stop-color="#1C7BF2"/></linearGradient>
</defs>
<rect width="480" height="360" rx="22" fill="url(#bg)"/>
<rect width="480" height="360" rx="22" fill="url(#glow)"/>
<g filter="url(#sh)">
 <rect x="58" y="70" width="275" height="198" rx="18" fill="#FAFCFF"/>
 <path d="M58 108H333" stroke="#DCE7F5"/>
 <circle cx="76" cy="89" r="3" fill="#AFC4DD"/><circle cx="88" cy="89" r="3" fill="#AFC4DD"/><circle cx="100" cy="89" r="3" fill="#AFC4DD"/>
 <rect x="78" y="128" width="46" height="120" rx="10" fill="#EDF4FF"/>
 <rect x="140" y="130" width="173" height="20" rx="9" fill="#DCE7F5"/>
 <rect x="140" y="166" width="173" height="40" rx="10" fill="#F7FAFF" stroke="#CFE0F2"/>
 <rect x="152" y="178" width="36" height="16" rx="6" fill="#C9E1FC"/>
 <rect x="198" y="178" width="103" height="6" rx="3" fill="#B9CDE6"/>
 <rect x="198" y="190" width="70" height="6" rx="3" fill="#D8E4F2"/>
 <rect x="140" y="218" width="173" height="40" rx="10" fill="#F7FAFF" stroke="#CFE0F2"/>
 <rect x="152" y="230" width="36" height="16" rx="6" fill="#C9E1FC"/>
 <rect x="198" y="230" width="103" height="6" rx="3" fill="#B9CDE6"/>
</g>
<path d="M192 266C238 236 282 244 336 196" stroke="url(#blue)" stroke-width="14" stroke-linecap="round"/>
<g filter="url(#sh)">
 <rect x="310" y="112" width="92" height="168" rx="20" fill="#FAFCFF"/>
 <rect x="322" y="128" width="68" height="132" rx="14" fill="#EDF4FF"/>
 <rect x="336" y="146" width="40" height="12" rx="6" fill="#C4DCF8"/>
 <rect x="336" y="174" width="40" height="34" rx="10" fill="#FFF"/>
 <rect x="336" y="218" width="40" height="28" rx="10" fill="#FFF"/>
 <rect x="342" y="252" width="28" height="6" rx="3" fill="#0B4FA8"/>
</g>
<path d="M42 304H438" stroke="#7FB6FF" stroke-opacity=".22"/>
</svg>